<?xml version="1.0" encoding="utf-8"?>
<?xml-stylesheet type="text/xsl" href="rss1.xsl"?>
<rss version="2.0" xmlns:atom="http://www.w3.org/2005/Atom" xmlns:content="http://purl.org/rss/1.0/modules/content/" xmlns:dc="http://purl.org/dc/elements/1.1/" xmlns:media="http://search.yahoo.com/mrss/">
<channel>
 <title>Getty</title>
 <link>http://www.gettyimg.com/</link>
 <atom:link href="http://www.gettyimg.com/" rel="self" type="application/rss+xml" />

 
                <item>
                <title><![CDATA[【HD Live Performances】WEB-RiP - Lana Del Rey - Born to Die - Glastonbury 2023 2023-06-24 720p BBC iPlayer]]></title>
                <link><![CDATA[https://sharemania.us/threads/lana-del-rey-born-to-die-glastonbury-2023-2023-06-24-720p-bbc-iplayer.223399/]]></link>
                <description><![CDATA[<article>
<blockquote class="messageText SelectQuoteContainer ugc baseHtml">
<div style="text-align: center"><img src="https://i.imgur.com/VuZ5qLH.jpg" class="bbCodeImage LbImage" alt="[​IMG]" data-url="https://i.imgur.com/VuZ5qLH.jpg" style=""> <br>
<b>Lana Del Rey - Born to Die (Live at Glastonbury 2023)(BBC iPlayer RIP)</b><br>
​</div>
<div class="ToggleTriggerAnchor bbCodeSpoilerContainer">
<button type="button" class="button bbCodeSpoilerButton ToggleTrigger Tooltip JsOnly" data-target="> .SpoilerTarget"><span>Spoiler: <span class="SpoilerTitle">MediaInfo</span></span></button>
<div class="SpoilerTarget bbCodeSpoilerText">General<br>
Complete name : Glastonbury_2023_-_Lana_Del_Rey_-_Born_to_Die_p0fw7lbc_original.mp4<br>
Format : MPEG-4<br>
Format profile : Base Media<br>
Codec ID : isom (isom/iso2/avc1/mp41)<br>
File size : 131 MiB<br>
Duration : 3 min 34 s<br>
Overall bit rate mode : Variable<br>
Overall bit rate : 5 107 kb/s<br>
Frame rate : 50.000 FPS<br>
Collection : Glastonbury: 2023<br>
Season : 2023<br>
Album : Glastonbury: 2023<br>
Album/Performer : BBC TV<br>
Part/Position : 2023<br>
Track name : Lana Del Rey - Born to Die<br>
Grouping : Music,Pop &amp; Chart,Performances &amp; Events<br>
Performer : BBC Music<br>
Composer : BBC iPlayer<br>
Genre : Music<br>
ContentType : TV Show<br>
Description : Lana Del Rey performs Born to Die at Glastonbury 2023.<br>
Recorded date : 2023-06-25 17:55:56 UTC<br>
Tagged date : 2023-06-25 17:55:56 UTC<br>
Copyright : 2023 British Broadcasting Corporation, all rights reserved<br>
Cover : Yes<br>
Lyrics : Lana Del Rey performs Born to Die at Glastonbury 2023. / / PLAY: <a href="https://www.bbc.co.uk/iplayer/episode/p0fw7lbc" target="_blank" class="externalLink" rel="nofollow">https://www.bbc.co.uk/iplayer/episode/p0fw7lbc</a> / / INFO: <a href="https://www.bbc.co.uk/programmes/p0fw7lbc" target="_blank" class="externalLink" rel="nofollow">https://www.bbc.co.uk/programmes/p0fw7lbc</a><br>
Comment : Lana Del Rey performs Born to Die at Glastonbury 2023.<br>
HDVideo : Yes<br>
Part_ID : p0fw7lbc<br>
TVNetworkName : BBC Music<br>
LongDescription : Lana Del Rey performs Born to Die at Glastonbury 2023. / / PLAY: <a href="https://www.bbc.co.uk/iplayer/episode/p0fw7lbc" target="_blank" class="externalLink" rel="nofollow">https://www.bbc.co.uk/iplayer/episode/p0fw7lbc</a> / / INFO: <a href="https://www.bbc.co.uk/programmes/p0fw7lbc" target="_blank" class="externalLink" rel="nofollow">https://www.bbc.co.uk/programmes/p0fw7lbc</a><br>
<br>
Video<br>
ID : 1<br>
Format : AVC<br>
Format/Info : Advanced Video Codec<br>
Format profile : High@L3.2<br>
Format settings : CABAC / 4 Ref Frames<br>
Format settings, CABAC : Yes<br>
Format settings, Reference : 4 frames<br>
Codec ID : avc1<br>
Codec ID/Info : Advanced Video Coding<br>
Duration : 3 min 34 s<br>
Bit rate mode : Variable<br>
Bit rate : 4 960 kb/s<br>
Maximum bit rate : 7 605 kb/s<br>
Width : 1 280 pixels<br>
Height : 720 pixels<br>
Display aspect ratio : 16:9<br>
Frame rate mode : Constant<br>
Frame rate : 50.000 FPS<br>
Color space : YUV<br>
Chroma subsampling : 4:2:0<br>
Bit depth : 8 bits<br>
Scan type : Progressive<br>
Bits/(Pixel*Frame) : 0.108<br>
Stream size : 127 MiB (97%)<br>
Color range : Limited<br>
Color primaries : BT.709<br>
Transfer characteristics : BT.709<br>
Matrix coefficients : BT.709<br>
Codec configuration box : avcC<br>
<br>
Audio<br>
ID : 2<br>
Format : AAC LC<br>
Format/Info : Advanced Audio Codec Low Complexity<br>
Codec ID : mp4a-40-2<br>
Duration : 3 min 34 s<br>
Bit rate mode : Variable<br>
Bit rate : 128 kb/s<br>
Maximum bit rate : 131 kb/s<br>
Channel(s) : 2 channels<br>
Channel layout : L R<br>
Sampling rate : 48.0 kHz<br>
Frame rate : 46.875 FPS (1024 SPF)<br>
Compression mode : Lossy<br>
Stream size : 3.28 MiB (3%)<br>
Language : English<br>
Default : Yes<br>
Alternate group : 1</div>
</div><div style="text-align: center"><br>
<div class="bbCodeBlock bbCodeVfcHH HiddenContent">
<div class="attribution type">Hidden Content:</div>
<blockquote>You must either reply or click 'Like' to see the hidden information contained here.</blockquote>
</div></div>
<div class="messageTextEndMarker">&nbsp;</div>
</blockquote>
</article>]]></description>
                <author><![CDATA[ImenaOphelia]]></author>
                </item>

                
                <item>
                <title><![CDATA[【HD Live Performances】WEB-RiP - Lana Del Rey - The Grants - Glastonbury 2023 2023-06-24 720p BBC iPlayer]]></title>
                <link><![CDATA[https://sharemania.us/threads/lana-del-rey-the-grants-glastonbury-2023-2023-06-24-720p-bbc-iplayer.223401/]]></link>
                <description><![CDATA[<article>
<blockquote class="messageText SelectQuoteContainer ugc baseHtml">
<div style="text-align: center"><img src="https://i.imgur.com/SS7z4u6.jpg" class="bbCodeImage LbImage" alt="[​IMG]" data-url="https://i.imgur.com/SS7z4u6.jpg" style=""> <br>
<b>Lana Del Rey - The Grants (Live at Glastonbury 2023)(BBC iPlayer RIP)<br>
<div class="ToggleTriggerAnchor bbCodeSpoilerContainer">
<button type="button" class="button bbCodeSpoilerButton ToggleTrigger Tooltip JsOnly" data-target="> .SpoilerTarget"><span>Spoiler: <span class="SpoilerTitle">MediaInfo</span></span></button>
<div class="SpoilerTarget bbCodeSpoilerText">General<br>
Complete name : Glastonbury_2023_-_Lana_Del_Rey_-_The_Grants_p0fx1h3j_original.mp4<br>
Format : MPEG-4<br>
Format profile : Base Media<br>
Codec ID : isom (isom/iso2/avc1/mp41)<br>
File size : 142 MiB<br>
Duration : 4 min 1 s<br>
Overall bit rate mode : Variable<br>
Overall bit rate : 4 948 kb/s<br>
Frame rate : 50.000 FPS<br>
Collection : Glastonbury: 2023<br>
Season : 2023<br>
Album : Glastonbury: 2023<br>
Album/Performer : BBC TV<br>
Part/Position : 2023<br>
Track name : Lana Del Rey - The Grants<br>
Grouping : Performances &amp; Events,Music<br>
Performer : BBC Music<br>
Composer : BBC iPlayer<br>
Genre : Performances &amp; Events<br>
ContentType : TV Show<br>
Description : Lana Del Rey performs The Grants at Glastonbury 2023.<br>
Recorded date : 2023-06-25 18:31:18 UTC<br>
Tagged date : 2023-06-25 18:31:18 UTC<br>
Copyright : 2023 British Broadcasting Corporation, all rights reserved<br>
Cover : Yes<br>
Lyrics : Lana Del Rey performs The Grants at Glastonbury 2023. / / PLAY: <a href="https://www.bbc.co.uk/iplayer/episode/p0fx1h3j" target="_blank" class="externalLink" rel="nofollow">https://www.bbc.co.uk/iplayer/episode/p0fx1h3j</a> / / INFO: <a href="https://www.bbc.co.uk/programmes/p0fx1h3j" target="_blank" class="externalLink" rel="nofollow">https://www.bbc.co.uk/programmes/p0fx1h3j</a><br>
Comment : Lana Del Rey performs The Grants at Glastonbury 2023.<br>
HDVideo : Yes<br>
Part_ID : p0fx1h3j<br>
TVNetworkName : BBC Music<br>
LongDescription : Lana Del Rey performs The Grants at Glastonbury 2023. / / PLAY: <a href="https://www.bbc.co.uk/iplayer/episode/p0fx1h3j" target="_blank" class="externalLink" rel="nofollow">https://www.bbc.co.uk/iplayer/episode/p0fx1h3j</a> / / INFO: <a href="https://www.bbc.co.uk/programmes/p0fx1h3j" target="_blank" class="externalLink" rel="nofollow">https://www.bbc.co.uk/programmes/p0fx1h3j</a><br>
<br>
Video<br>
ID : 1<br>
Format : AVC<br>
Format/Info : Advanced Video Codec<br>
Format profile : High@L3.2<br>
Format settings : CABAC / 4 Ref Frames<br>
Format settings, CABAC : Yes<br>
Format settings, Reference : 4 frames<br>
Codec ID : avc1<br>
Codec ID/Info : Advanced Video Coding<br>
Duration : 4 min 1 s<br>
Bit rate mode : Variable<br>
Bit rate : 4 803 kb/s<br>
Maximum bit rate : 7 605 kb/s<br>
Width : 1 280 pixels<br>
Height : 720 pixels<br>
Display aspect ratio : 16:9<br>
Frame rate mode : Constant<br>
Frame rate : 50.000 FPS<br>
Color space : YUV<br>
Chroma subsampling : 4:2:0<br>
Bit depth : 8 bits<br>
Scan type : Progressive<br>
Bits/(Pixel*Frame) : 0.104<br>
Stream size : 138 MiB (97%)<br>
Color range : Limited<br>
Color primaries : BT.709<br>
Transfer characteristics : BT.709<br>
Matrix coefficients : BT.709<br>
Codec configuration box : avcC<br>
<br>
Audio<br>
ID : 2<br>
Format : AAC LC<br>
Format/Info : Advanced Audio Codec Low Complexity<br>
Codec ID : mp4a-40-2<br>
Duration : 4 min 1 s<br>
Bit rate mode : Variable<br>
Bit rate : 128 kb/s<br>
Maximum bit rate : 131 kb/s<br>
Channel(s) : 2 channels<br>
Channel layout : L R<br>
Sampling rate : 48.0 kHz<br>
Frame rate : 46.875 FPS (1024 SPF)<br>
Compression mode : Lossy<br>
Stream size : 3.68 MiB (3%)<br>
Language : English<br>
Default : Yes<br>
Alternate group : 1</div>
</div>
<div class="bbCodeBlock bbCodeVfcHH HiddenContent">
<div class="attribution type">Hidden Content:</div>
<blockquote>You must either reply or click 'Like' to see the hidden information contained here.</blockquote>
</div></b>​</div>
<div class="messageTextEndMarker">&nbsp;</div>
</blockquote>
</article>]]></description>
                <author><![CDATA[ImenaOphelia]]></author>
                </item>

                
                <item>
                <title><![CDATA[【HD Live Performances】HDTV - Avril Lavigne  - What the Hell (MuchMusic Video Awards, Canada, 2011)]]></title>
                <link><![CDATA[https://sharemania.us/threads/avril-lavigne-what-the-hell-muchmusic-video-awards-canada-2011.223400/]]></link>
                <description><![CDATA[<article>
<blockquote class="messageText SelectQuoteContainer ugc baseHtml">
I included 2 versions:<br>
- processed version (by me): deinterlaced with QTGMC (59.94 fps), deblocked (the original is has many blocking artifacts), slightly denoised, saved as MP4, put into MKV container<br>
- original version<br>
<br>
<img src="https://i.postimg.cc/pdDfNyFw/Avril-Lavigne-What-the-Hell-Much-Music-Video-Awards-Canada-2011-mkv.jpg" class="bbCodeImage LbImage" alt="[​IMG]" data-url="https://i.postimg.cc/pdDfNyFw/Avril-Lavigne-What-the-Hell-Much-Music-Video-Awards-Canada-2011-mkv.jpg" style=""><br>
<br>
<div class="bbCodeBlock bbCodeVfcHH HiddenContent">
<div class="attribution type">Hidden Content:</div>
<blockquote>You must reply before you can see the hidden data contained here.</blockquote>
</div>
<div class="messageTextEndMarker">&nbsp;</div>
</blockquote>
</article>]]></description>
                <author><![CDATA[caladan]]></author>
                </item>

                </channel></rss>